# xmcd
#
# Track frame offsets: 
#        150
#        27316
#        48734
#        65700
#        83564
#        104160
#        119815
#        138584
#        155157
#        174101
#        189439
#        207801
#
# Disc length: 3043 seconds
#
# Revision: 12
# Processed by: cddbd v1.5.2PL0 Copyright (c) Steve Scherf et al.
# Submitted via: ExactAudioCopy v1.3
#
DISCID=b20be10c
DTITLE=Vasco Rossi - Il mondo che vorrei
DYEAR=2008
DGENRE=Rock
TTITLE0=Il Mondo Che Vorrei
TTITLE1=Vieni Qui
TTITLE2=Gioca Con Me
TTITLE3=E Adesso Tocca A Me
TTITLE4=Dimmelo Te
TTITLE5=Cosa Importa A Me
TTITLE6=Non Vivo Senza Te
TTITLE7=Qui Si Fa La Storia
TTITLE8=Colpa Del Whisky
TTITLE9=Non Sopporto
TTITLE10=Ho Bisogno Di Te
TTITLE11=Basta Poco
EXTD=YEAR: 2008
EXTT0=
EXTT1=
EXTT2=
EXTT3=
EXTT4=
EXTT5=
EXTT6=
EXTT7=
EXTT8=
EXTT9=
EXTT10=
EXTT11=
PLAYORDER=
